<svg width="416" height="91" viewBox="0 0 416 91" fill="none" xmlns="http://www.w3.org/2000/svg">
<g clip-path="url(#clip0_63_5673)">
<path d="M244.593 74.621C242.264 77.4244 238.922 78.2032 237.72 78.4108C234.326 79.0026 233.514 77.5387 229.603 78.1409C227.031 78.5354 225.081 79.5218 223.278 80.4459C220.664 81.7749 220.221 82.5017 217.639 83.9657C217.639 83.9657 214.803 85.5751 211.04 86.8106C204.314 89.0118 194.321 88.0566 185.983 84.0384C180.396 81.3388 179.331 79.0649 175.684 79.4076C172.078 79.7502 170.845 82.2006 165.532 82.5951C162.338 82.834 159.903 82.1694 159.186 81.9514C157.932 81.5776 157.7 81.3077 156.909 81.0169C152.218 79.3453 148.581 83.9242 142.794 83.54C140.601 83.3946 139.958 82.6678 137.302 81.6814C125.559 77.331 118.601 84.3395 111.191 79.7398C107.744 77.6009 104.813 73.5308 105.34 69.8034C106.046 64.7157 113.067 60.7494 118.665 61.1024C122.966 61.3724 124.304 64.0512 127.351 63.1479C130.355 62.255 130.724 59.1504 134.034 54.8311C136.975 50.9998 140.749 48.1549 143.427 46.8363C154.01 41.5929 164.425 51.6747 170.497 46.5248C173.523 43.9602 171.33 41.1153 175.388 36.3703C180.216 30.7219 187.269 30.1301 187.659 30.099C188.144 30.0678 195.702 29.6629 200.909 34.8751C203.302 37.2632 204.388 39.8797 205.168 41.8109C207.656 47.968 205.864 50.3561 207.73 51.9966C211.293 55.1322 218.261 46.8363 228.908 48.4768C237.277 49.7643 242.506 56.3678 243.212 57.2919C245.69 60.5106 246.333 63.2621 246.47 63.8955C246.786 65.3283 247.924 70.6028 244.593 74.621Z" fill="#E9F4F6"/>
<path d="M201.331 48.0927C204.114 51.3737 205.653 54.6339 206.496 56.887C211.925 54.0213 216.711 52.7338 219.905 52.1005C225.545 50.9791 230.752 49.9408 236.255 52.3289C240.756 54.2809 243.423 57.6242 244.72 59.5554C244.161 57.7592 241.6 50.2523 234.031 46.3483C229.308 43.9083 224.649 43.8979 223.078 43.9395C218.883 44.0433 215.857 45.0816 215.151 45.3412C212.526 46.3379 210.587 47.6566 209.343 48.643C208.91 46.0784 207.688 41.1049 203.724 36.4326C202.174 34.6156 197.926 29.5695 190.494 28.3339C188.934 28.0743 183.463 27.2437 178.203 30.0679C173.797 32.4352 171.309 35.8512 170.36 37.2736C169.633 38.3638 169.116 39.3398 168.768 40.0563C166.544 38.7169 159.608 34.9375 150.405 36.0588C148.719 36.2665 137.587 37.8032 130.903 47.6047C127.667 52.3497 126.803 57.0635 126.539 59.6696C125.211 58.9532 122.671 57.8007 119.318 57.7384C118.317 57.7176 112.53 57.6034 108.65 61.7359C104.792 65.8475 105.193 71.6204 105.33 71.6619C105.435 71.6827 105.551 69.0143 107.586 66.4601C109.494 64.072 112.013 63.1479 112.74 62.8884C116.578 61.5282 119.951 62.5561 121.258 62.9714C124.905 64.1343 127.108 66.4289 128.026 67.5192C128.858 65.6398 130.303 62.7638 132.643 59.6385C135.805 55.423 141.339 48.0096 149.562 47.3036C153.578 46.9609 157.204 48.3003 160.399 49.484C163.55 50.6572 166.007 52.0693 167.693 53.1803C170.118 49.7747 174.366 45.0505 180.997 42.2471C183.811 41.053 186.573 39.9317 190.073 40.43C195.449 41.1672 198.896 45.227 201.331 48.0927Z" fill="white"/>
<path d="M219.009 84.4745C222.245 82.346 221.613 82.3148 223.869 80.7262C229.614 76.6769 238.3 82.1902 243.961 77.5386C246.017 75.8462 247.45 72.9909 247.64 70.1356C247.777 67.9967 247.187 66.2524 246.744 65.2452C246.596 66.3147 246.059 69.0246 243.803 71.3919C243.392 71.828 239.808 75.4724 234.526 74.8598C231.142 74.4653 228.95 72.5341 228.191 71.7969C226.146 73.3336 222.34 75.6386 217.375 75.732C213.749 75.8047 211.019 74.6314 207.92 73.3855C203.756 71.7138 200.699 69.5645 198.717 67.9448C197.905 68.817 193.246 73.6658 185.772 73.7696C176.443 73.9046 171.088 66.5327 170.666 65.9201C169.454 69.8345 165.891 71.9319 163.076 71.257C160.557 70.6548 159.408 68.0175 159.239 67.6333C156.54 73.915 150.542 77.8605 144.375 77.549C138.188 77.2375 134.361 72.7729 133.676 71.9422C132.126 74.2784 129.333 75.379 126.803 74.7249C123.746 73.9254 122.66 70.9455 122.576 70.6963C122.386 71.0597 119.835 76.22 114.153 76.9157C110.105 77.4037 107.132 75.3063 106.468 74.8079C107.354 77.196 108.577 78.5354 109.367 79.2518C116.188 85.3985 131.61 82.0033 135.921 83.3427C136.206 83.4362 137.682 83.8826 139.758 84.1941C140.169 84.2564 140.633 84.3083 141.192 84.3291C146.726 84.6094 150.131 82.429 154.632 83.322C155.402 83.4777 155.623 83.6127 156.825 83.81C157.521 83.9242 159.85 84.2876 162.897 84.2253C167.967 84.1111 169.106 82.9378 172.542 82.834C175.937 82.7197 178.424 83.6231 182.441 85.2532C187.09 87.1429 191.897 89.0949 196.682 89.7698C208.246 91.3895 217.85 85.2324 219.009 84.4745Z" fill="#CEEAF0"/>
<path d="M406.131 28.3252C403.919 28.383 402.134 28.7992 400.966 29.1519C400.995 28.62 401.089 25.4633 398.178 22.9888C395.325 20.5664 391.68 20.5779 390.694 20.6184C389.162 20.6762 387.806 21.1966 385.082 22.1968C383.016 22.9541 381.349 23.7173 380.193 24.2839C379.125 22.9715 377.463 21.1734 375.121 19.4101C373.255 18.0052 371.834 16.9414 369.645 16.2649C366.088 15.1607 362.402 15.7099 360.288 16.8604C358.299 17.9416 357.136 19.6413 357.013 19.8263C356.585 20.4507 356.315 20.9422 356.133 21.318C355.704 22.1968 355.657 22.3124 355.61 22.3355C355.305 22.3818 354.788 20.2773 354.624 19.6529C353.855 16.6696 352.652 14.0911 352.37 13.5072C351.102 10.8997 349.283 9.32135 348.138 8.33271C341.223 2.34307 330.681 4.06017 329.93 4.19315C326.613 4.79442 318.472 6.27449 315.244 13.2701C312.884 18.3752 314.504 23.4629 315.091 25.0759C315.079 25.0759 313.747 25.232 313.735 25.232C313.054 25.3072 312.379 25.3881 312.379 25.3881C310.654 25.4228 310.337 25.1338 308.599 25.0759C307.284 25.0355 305.829 24.9834 304.467 25.7293C304.15 25.9027 302.671 26.7121 302.33 28.117C301.996 29.5046 303.046 30.3545 302.448 30.9615C301.978 31.4356 301.197 31.0598 299.894 31.3547C298.632 31.638 297.335 32.4705 296.642 33.6094C295.832 34.9392 296.055 36.3383 296.366 38.2751C296.496 39.1019 296.719 40.4143 297.505 41.9001C298.632 44.0162 300.217 45.1725 301.056 45.7737C304.537 48.2598 310.313 49.7514 315.132 47.7741C317.146 46.9474 316.482 46.5427 321.319 43.7213C321.319 43.7213 325.68 41.241 328.832 41.5532C330.722 41.7383 330.54 42.6286 332.366 42.7616C335.759 43.0102 337.314 40.183 339.709 40.7843C341.253 41.1659 340.812 42.4147 342.873 43.49C345.15 44.681 347.868 44.2937 349.67 44.0335C352.206 43.6693 353.949 42.7963 354.325 42.6055C356.309 41.5821 356.467 40.8421 357.594 40.3912C360.259 39.3331 363.576 42.1776 365.959 42.7963C377.328 45.7564 393.435 44.444 398.078 39.9518C398.636 39.4083 398.777 38.8359 399.598 38.3329C403.208 36.1186 408.35 40.2929 412.183 38.3387C414.114 37.3559 414.942 35.2109 414.96 33.6152C414.965 33.251 415.024 31.3258 413.386 29.9151C411.397 28.1922 408.415 28.2673 406.131 28.3252Z" fill="#F2F7F8"/>
<path d="M336.744 44.3053C330.288 46.5774 324.089 49.4508 314.592 49.3988C303.65 49.3352 299.407 45.4095 297.986 43.8543C297.111 42.9004 294.546 40.0906 294.922 36.4424C294.993 35.7371 295.474 32.1121 298.42 30.9269C300.123 30.2389 301.772 30.7187 302.4 30.9384C302.224 30.4065 301.584 28.2674 302.711 26.2728C304.138 23.752 307.483 23.064 309.89 23.6884C311.228 24.0353 312.167 24.758 312.684 25.2379C312.167 24.3417 311.522 22.9946 311.134 21.2602C310.277 17.4271 311.293 14.3108 311.692 13.1256C313.57 7.59272 318.161 4.68462 319.869 3.5977C329.648 -2.60586 340.671 1.04806 341.311 1.26775C343.612 2.07138 350.826 4.59212 354.001 11.7843C355.58 15.3573 355.539 18.6874 355.363 20.5838C355.557 19.6587 356.009 18.1555 357.2 16.7564C359.413 14.1547 362.601 13.7731 364.062 13.5939C368.335 13.0794 371.658 14.808 373.254 15.6637C377.621 18.011 379.876 21.5435 380.821 23.2895C381.337 22.7576 385.088 18.9765 390.711 19.4159C394.174 19.6876 398.301 21.5493 400.109 25.2726C400.825 26.7468 400.995 28.1344 401.024 29.0768C401.658 28.4755 403.578 26.8336 406.442 26.6601C409.582 26.4693 412.823 28.1113 414.225 30.7766C414.472 31.2391 414.989 32.2508 414.947 33.6095C414.871 36.3962 412.512 38.6163 410.422 39.4719C407.358 40.7265 404.106 39.3621 403.255 39.0383C393.493 35.2572 360.887 35.8065 336.744 44.3053ZM384.53 44.1087C384.53 44.1087 393.904 43.9006 398.025 39.9056C398.23 39.7032 398.383 39.4951 398.53 39.2927C398.776 38.9516 399.029 38.5989 399.551 38.2809C401.412 37.1362 403.707 37.6797 405.931 38.2058C408.068 38.7088 410.281 39.2349 412.142 38.2867C414.02 37.3328 414.871 35.2514 414.889 33.6095C414.766 33.0834 414.513 32.3433 413.967 31.5975C411.678 28.4582 406.853 28.9091 406.354 28.9612C403.513 29.2676 401.558 30.7823 400.707 31.5397C400.426 30.499 399.651 28.2038 397.52 26.1687C396.816 25.498 394.785 23.5439 391.697 23.1623C388.17 22.7229 385.282 24.4863 382.382 26.2843C381.39 26.8972 380.609 27.4811 380.063 27.9147C379.776 26.6775 378.59 22.3009 374.481 19.7975C368.811 16.3344 361.051 20.5549 358.157 22.0696C356.432 22.9715 355.117 23.8966 354.283 24.5383C354.307 23.648 354.33 19.2771 350.932 15.9007C350.092 15.0682 348.073 13.0562 345.255 12.8539C339.403 12.4261 337.842 20.3236 330.552 21.2371C326.578 21.7343 324.729 19.6761 321.524 21.2371C319.094 22.4223 317.773 24.7638 317.028 26.6486C316.083 26.319 312.989 25.3766 309.931 26.7989C309.051 27.2094 307.466 27.9436 306.761 29.6723C306.28 30.8517 306.427 31.9502 306.544 32.511C305.922 32.7712 302.77 34.1703 301.432 37.6623C301.256 38.1191 300.287 40.6514 301.179 43.0333C302.788 47.3174 309.409 48.3812 311.316 48.6877C320.203 50.1215 323.837 45.7507 342.908 43.4496C342.908 43.4496 343.336 43.386 343.911 43.334C346.482 43.0912 351.061 43.2646 384.53 44.1087Z" fill="white"/>
<path d="M407.329 37.587C406.466 37.6275 403.279 37.6853 400.584 35.6849C399.628 34.9738 398.935 34.1528 398.477 33.6151C397.015 31.8864 397.08 31.2216 396.023 30.019C394.409 28.1863 392.331 27.5445 391.809 27.3884C389.479 26.7004 387.501 27.1861 386.315 27.4925C383.18 28.3019 381.144 30.1404 380.187 31.1522C378.778 29.9092 374.247 26.2379 367.32 25.7465C361.638 25.3476 357.359 27.3017 355.598 28.2325C354.624 27.3884 353.109 26.3535 351.19 26.2495C348.331 26.0934 346.436 28.221 344.275 29.6316C341.922 31.1753 338.007 32.7132 331.374 32.0657C330.822 32.7941 327.435 37.1129 321.278 37.7778C314.721 38.4889 310.284 34.4939 309.655 33.91C308.84 34.0487 307.548 34.3725 306.186 35.1935C305.376 35.6849 304.05 36.4712 303.416 37.8125C302.23 40.3217 303.85 43.1026 304.249 43.7906C306.779 48.1325 312.696 49.0922 314.586 49.3986C323.056 50.7688 330.857 47.3635 338.071 47.0687C339.192 47.0224 340.683 46.9646 342.65 47.2132C344.551 47.456 345.226 47.7798 347.134 48.0342C347.134 48.0342 349.124 48.3001 351.83 48.2134C356.978 48.0457 366.211 45.4788 367.32 45.1781C381.525 41.3392 397.209 48.4794 400.232 44.1317C400.42 43.8599 400.825 43.091 401.752 42.5128C403.678 41.3103 405.081 42.1544 407.986 41.5358C408.796 41.3623 411.649 40.7206 413.504 38.408C413.832 37.9975 414.73 36.8181 414.995 35.0316C415.153 33.9909 415.036 33.1179 414.918 32.5571C414.742 33.2104 414.39 34.1759 413.615 35.0894C411.678 37.3673 408.673 37.5176 407.329 37.587Z" fill="#CEEAF0"/>
<path d="M391.762 45.6235C392.114 45.8663 392.624 45.2651 393.634 45.0454C394.761 44.7968 395.841 44.9355 396.364 44.9991C396.821 45.0569 397.937 45.1957 398.805 45.6987C400.073 46.4271 400.373 47.6528 399.662 48.549C398.7 49.7689 396.111 50.2603 394.292 50.295C390.987 50.3644 390.347 48.9421 386.989 48.8958C384.242 48.8612 384.119 49.7284 380.222 50.1158C378.977 50.2429 374.299 50.7055 371.482 49.2023C371.024 48.9594 369.28 47.9477 369.809 46.9359C370.173 46.2364 371.534 45.6987 372.767 45.5831C373.818 45.4848 374.61 45.8374 374.774 45.5368C374.898 45.3055 374.481 45.0512 374.24 44.3689C373.923 43.4786 374.187 42.6345 374.281 42.3281C374.639 41.1718 375.485 40.5416 375.749 40.3508C377.287 39.235 379.435 39.3564 380.879 40.0617C382.493 40.848 383.391 42.2934 383.391 42.2934C383.843 43.0218 383.92 43.5422 384.436 43.7156C385.076 43.9353 385.276 43.2589 386.719 43.0103C387.97 42.7964 389.114 43.0854 389.302 43.1375C389.337 43.149 389.367 43.1548 389.39 43.1606C389.625 43.2242 391.04 43.6289 391.497 44.6522C391.738 45.1899 391.521 45.4559 391.762 45.6235Z" fill="#CEEAF0"/>
<path d="M354.307 47.5141C353.79 47.3695 353.039 47.144 352.105 46.8145C351.648 46.6526 351.284 46.5139 350.973 46.3982C350.192 46.0976 349.722 45.9184 348.83 45.8027C347.721 45.6582 347.075 45.7565 346.177 45.8952C345.596 45.9877 344.868 46.0976 343.835 46.1612C339.644 46.4329 335.353 46.722 333.833 44.5713C332.929 43.2936 333.152 41.351 333.897 40.0675C335.171 37.8821 338.405 36.8587 341.657 38.0208C341.863 37.1131 342.279 35.899 343.189 34.7369C345.291 32.0659 349.306 30.58 352.581 31.7768C353.808 32.222 354.641 32.9447 355.093 33.3898C355.903 32.1873 357.746 29.8284 360.986 28.4409C365.213 26.637 369.116 27.6604 371.264 28.2212C375.708 29.3833 378.655 31.8462 380.116 33.28C380.263 33.147 382.998 30.7593 386.561 31.771C388.909 32.4417 390.717 34.3265 391.269 36.6911C392.437 36.2286 393.963 35.8354 395.741 35.8585C396.868 35.8701 399.316 35.9337 401.535 37.5814C402.486 38.2868 403.871 39.3159 403.924 40.7786C404.006 43.0103 400.96 44.8199 399.275 45.3344C397.485 45.8779 395.501 45.9588 394.937 45.9704C393.84 45.9935 393.223 45.901 392.683 45.8143C392.126 45.7276 391.638 45.6524 390.746 45.7218C389.684 45.797 389.05 45.9993 388.439 46.1959C387.753 46.4098 387.048 46.6353 385.775 46.6815C384.601 46.722 383.685 46.589 382.957 46.485C381.437 46.2653 380.644 45.9704 380.005 45.7391C379.388 45.5137 378.936 45.346 378.12 45.346C377.128 45.3402 376.553 45.583 375.954 45.8374C375.32 46.1034 374.663 46.3809 373.495 46.3578C372.791 46.3404 372.368 46.2248 371.922 46.1034C371.429 45.9704 370.924 45.8316 369.956 45.7796C368.512 45.7102 367.385 45.9126 366.774 46.0224C365.618 46.2306 365.054 46.4907 364.403 46.7914C363.804 47.0631 363.123 47.3753 361.879 47.7106C361.292 47.8667 360.758 48.0113 360.2 48.1153C359.948 48.1616 359.196 48.2772 358.357 48.2888C357.118 48.3003 356.179 48.0402 354.307 47.5141Z" fill="white"/>
<path d="M379.682 35.4423C378.795 34.6733 377.486 33.6674 375.749 32.7539C374.945 32.3318 372.11 30.8402 369.081 30.5974C363.317 30.1349 358.815 34.3611 357.875 35.2862C354.958 33.095 351.495 32.9967 349.74 34.5866C348.842 35.4018 347.733 37.2634 348.284 38.5238C348.59 39.2234 349.581 40.1311 349.276 40.6109C348.584 40.1426 347.075 39.2176 345.038 39.2118C344.639 39.2118 341.252 39.2003 340.489 41.1544C340.119 42.1026 340.454 43.2936 341.106 44.0567C342.919 46.1901 347.433 45.2997 347.697 45.2477C347.697 45.2477 349.505 44.8719 351.196 44.8661C351.695 44.8661 352.182 44.9297 352.182 44.9297C353.661 45.1205 353.819 45.5137 356.936 46.4156C359.261 47.0862 359.889 47.1151 360.376 47.0805C361.521 47.0053 362.155 46.6295 362.953 46.8376C363.546 46.9879 363.481 47.2712 364.162 47.6413C365.078 48.1443 366.269 48.2252 366.545 48.2425C368.811 48.3986 370.66 47.3406 370.906 47.1903C372.251 46.3925 372.174 45.664 373.501 45.4096C374.158 45.2824 374.739 45.3518 375.109 45.398C376.835 45.6004 377.193 46.3462 379.183 47.0111C380.016 47.2886 380.82 47.4447 381.284 47.5141C385.223 48.0749 387.453 45.2824 392.548 45.2535C395.131 45.2362 395.243 45.9531 397.544 45.7449C400.249 45.5021 403.278 44.2128 404.065 42.2413C404.658 40.7497 403.889 39.0962 401.905 38.0324C400.332 37.1883 398.952 36.905 396.769 36.853C395.16 36.8125 392.76 36.9397 389.895 37.7722C389.525 37.0784 388.727 35.8412 387.224 35.0145C383.738 33.1008 379.893 35.3151 379.682 35.4423Z" fill="#F2F7F8"/>
<path d="M373.166 40.2408C373.518 40.4836 374.029 39.8824 375.039 39.6627C376.166 39.4141 377.246 39.5528 377.768 39.6164C378.226 39.6742 379.341 39.813 380.21 40.316C381.478 41.0445 381.777 42.2701 381.067 43.1663C380.104 44.3862 377.516 44.8776 375.696 44.9123C372.391 44.9817 371.752 43.5594 368.394 43.5132C365.647 43.4785 365.524 44.3457 361.626 44.7331C360.382 44.8603 355.704 45.3228 352.886 43.8196C352.428 43.5768 350.685 42.565 351.213 41.5532C351.577 40.8537 352.939 40.3218 354.172 40.2004C355.222 40.1021 356.015 40.4547 356.179 40.1541C356.302 39.9228 355.886 39.6685 355.645 38.9862C355.328 38.0959 355.592 37.2518 355.686 36.9454C356.044 35.7891 356.889 35.1589 357.153 34.9681C358.691 33.8523 360.84 33.9737 362.284 34.679C363.898 35.4653 364.796 36.9107 364.796 36.9107C365.248 37.6392 365.324 38.1595 365.841 38.3329C366.48 38.5526 366.68 37.8762 368.124 37.6276C369.374 37.4137 370.519 37.7027 370.707 37.7548C370.742 37.7663 370.771 37.7721 370.795 37.7779C371.03 37.8415 372.444 38.2462 372.902 39.2695C373.143 39.8014 372.926 40.0732 373.166 40.2408Z" fill="white"/>
<path d="M368.465 44.4558C368.159 44.3575 367.76 44.1783 367.109 44.2072C365.131 44.3055 362.906 44.82 361.327 44.9992C359.331 45.2247 357.758 44.9703 357.752 44.8836C357.752 44.7795 359.936 45.0802 362.583 44.2072C364.297 43.6406 364.52 43.1376 366.351 42.7213C367.349 42.4959 368.406 42.2646 369.668 42.5248C371.388 42.8774 371.399 43.71 372.673 43.8776C374.616 44.132 375.08 42.253 377.563 41.9813C379.57 41.7616 379.946 42.9179 381.895 42.5999C383.703 42.3051 383.738 41.2875 385.763 40.4376C387.806 39.582 390.764 39.4721 392.648 40.8597C394.274 42.0565 393.716 43.3342 395.166 44.3459C397.954 46.2885 402.638 43.1896 402.914 43.7331C403.196 44.2997 398.324 48.1213 395.166 47.3581C394.292 47.1442 393.499 46.5718 392.137 46.6817C391.633 46.7221 390.793 46.884 390.195 46.3984C389.948 46.196 389.93 46.0457 389.725 45.959C389.085 45.6872 388.122 46.7684 387.524 47.2772C385.064 49.3643 379.975 49.2602 378.25 47.3581C377.909 46.9823 377.668 46.5024 377.105 46.3984C376.201 46.2307 375.825 47.2887 374.645 47.5258C373.407 47.7744 372.174 46.9361 371.124 46.2134C370.026 45.4618 369.68 44.8489 368.465 44.4558Z" fill="#CEEAF0"/>
<path d="M15.5591 42.834C14.3566 44.1693 9.81975 39.8221 4.38685 40.5537C3.74396 40.639 0.672755 41.0557 0.0931569 42.9357C-0.229952 43.9856 0.326329 45.3078 1.16242 46.0066C1.73868 46.4889 2.6214 46.4955 4.28692 46.6267C4.96978 46.6825 5.62266 46.689 6.00239 47.1517C6.24556 47.4502 6.10899 47.6766 6.3255 48.008C6.77186 48.6937 7.79449 48.9857 8.80712 49.094C10.7158 49.2974 13.8603 49.632 16.4751 48.2311C16.8849 48.0113 17.6743 47.5388 18.6336 47.6832C19.2099 47.7717 19.2066 47.985 20.0826 48.2737C21.0919 48.6051 21.9813 48.6018 22.5976 48.6084C24.7128 48.6248 25.2257 47.9653 26.6614 47.9555C28.3203 47.9424 29.1364 48.9562 30.6953 49.5041C36.1881 51.4333 44.1126 51.0231 46.4977 48.5559C46.8174 48.2245 46.8807 47.9653 47.2838 47.6635C48.5662 46.7022 49.922 46.9286 53.5028 46.7908C55.8911 46.6989 56.4807 46.5316 57.017 46.1083C58.0696 45.275 58.2528 43.9692 58.2762 43.7657C58.5693 41.4199 56.3908 39.5071 55.5481 38.7689C53.9325 37.3515 52.1304 36.6002 49.0159 35.8325C46.2911 35.1599 39.1128 33.4603 32.2742 34.9532C30.4155 35.36 28.9631 35.6947 27.4542 36.8036C25.8986 37.9487 25.792 38.8083 24.4463 39.2676C22.5409 39.9172 21.9214 38.4506 19.7295 39.0018C18.1207 39.4087 16.4818 40.6882 15.7889 42.2795C15.5991 42.6994 15.6757 42.706 15.5591 42.834Z" fill="#E9F4F6"/>
<path d="M70.3545 44.8289C66.4006 47.8375 51.2944 45.9805 51.3776 45.1274C51.4243 44.6353 56.4308 45.3604 57.3635 43.2114C57.6699 42.506 57.51 41.5512 57.167 40.8754C56.7073 39.9698 55.9145 39.5728 55.3349 39.2808C55.0551 39.1398 53.8459 38.5623 52.1138 38.6607C50.2684 38.7657 49.6821 39.5269 48.9193 39.1102C48.1765 38.7034 48.5996 37.834 47.7868 36.7676C46.501 35.0845 43.9661 35.1075 43.7862 35.1108C42.4038 35.1436 41.268 35.7407 40.7317 36.0229C40.4385 36.1771 40.0022 36.5249 39.1761 37.0104C38.5332 37.391 38.2101 37.5813 38.0302 37.6273C37.0076 37.8996 36.2215 37.0564 34.969 36.4625C34.969 36.4625 33.2535 35.6456 31.1417 35.7702C28.4269 35.931 26.5548 37.683 26.0152 38.1916C24.8593 39.2743 24.2331 40.4193 23.91 41.1313C23.6369 40.7704 23.0639 40.124 22.1246 39.7303C20.4924 39.0479 18.9634 39.6417 18.567 39.7894C16.5884 40.5309 15.8656 42.2632 15.6491 42.1287C15.4126 41.981 16.0754 39.8123 17.8042 38.1227C19.6363 36.3313 21.7915 35.931 22.3111 35.8457C24.2864 35.5242 25.8686 35.9901 26.5948 36.2558C26.7813 35.7473 28.1804 32.135 31.6446 31.0884C33.1936 30.6192 34.5959 30.8325 34.8025 30.8653C36.5379 31.1441 37.7038 32.0169 38.1968 32.4335C38.3 32.3384 39.1528 31.5871 40.3619 31.7774C41.4445 31.9447 42.0075 32.742 42.1007 32.8765C42.4671 32.2006 43.1134 31.2065 44.1793 30.2747C44.9088 29.6382 46.6043 28.2044 49.1858 28.0338C51.9939 27.8501 54.0158 29.2871 54.6487 29.7826C57.5633 32.0726 57.7632 35.4914 57.7865 36.036C58.0663 35.7145 58.7392 35.032 59.8384 34.681C60.438 34.4907 61.6438 34.2479 62.9196 34.7991C64.4985 35.4782 65.1181 37.0039 65.1681 37.1351C65.6344 38.3326 65.1714 38.9527 65.6777 39.3366C66.3539 39.8517 67.3033 38.8149 69.0154 39.1824C69.3185 39.248 70.028 39.4088 70.6776 39.9731C70.7942 40.0748 72.0233 41.1739 71.8301 42.6635C71.6869 43.8151 70.7342 44.5402 70.3545 44.8289Z" fill="white"/>
<path d="M56.3607 42.9391C54.0723 42.1713 54.2921 41.5873 52.48 41.0689C47.8499 39.7434 44.7254 43.9102 40.4883 42.5125C39.1459 42.0696 38.2299 41.2461 37.7336 40.7277C37.3472 41.2133 34.5158 44.6517 30.0056 44.6058C27.8804 44.5861 26.2582 43.7987 25.4021 43.2934C24.0098 45.2751 21.5615 46.1511 19.4129 45.5015C16.8414 44.7206 16.0186 42.1484 15.9553 41.9351C15.8954 42.0467 15.8388 42.1615 15.7888 42.2763C15.6056 42.6996 15.6789 42.7028 15.5623 42.8341C14.3598 44.1694 9.82292 39.8222 4.39002 40.5538C3.74713 40.6391 0.675929 41.0558 0.0963307 42.9358C-0.226779 43.9857 0.329503 45.3079 1.16559 46.0067C1.74186 46.489 2.62458 46.4956 4.29009 46.6268C4.97295 46.6826 5.62583 46.6892 6.00557 47.1518C6.24873 47.4503 6.11216 47.6767 6.32868 48.0081C6.77503 48.6938 7.79766 48.9858 8.81029 49.0941C10.719 49.2975 13.8635 49.6322 16.4783 48.2312C16.888 48.0114 17.6775 47.5389 18.6368 47.6833C19.2131 47.7719 19.2098 47.9851 20.0858 48.2739C21.0951 48.6052 21.9845 48.6019 22.5974 48.6085C24.7126 48.6249 25.2256 47.9654 26.6613 47.9556C28.3201 47.9425 29.1362 48.9563 30.6951 49.5042C36.188 51.4334 44.1125 51.0233 46.4975 48.556C46.8173 48.2246 46.8806 47.9654 47.2836 47.6636C49.209 46.22 51.8638 46.5579 53.5026 46.7909C56.7571 47.2502 61.6737 47.913 66.3837 46.932C66.3837 46.932 70.8373 46.0363 71.7034 43.9463C72.1497 42.8702 71.9199 41.9646 71.9199 41.9646C71.8333 41.6201 71.6934 41.3577 71.5901 41.1903C71.5168 41.3577 70.5675 43.3853 68.3157 43.7691C66.5936 44.0611 65.2945 43.1917 65.0347 43.0112C62.8862 43.5821 59.705 44.0579 56.3607 42.9391Z" fill="#CEEAF0"/>
<path d="M50.4315 42.3452C51.9238 41.922 53.3895 42.3911 53.8125 42.5289C55.5779 43.0933 56.6539 44.317 57.0769 43.9791C57.2501 43.8413 57.1335 43.5887 57.1835 43.0637C57.1835 43.0637 57.2934 41.8924 58.1961 40.9311C59.1788 39.8812 60.9575 39.5794 62.3766 40.0912C63.9755 40.6654 64.635 42.0893 64.8415 42.5355C66.1106 45.2751 64.3252 47.9654 64.212 48.1295C64.0121 48.4215 63.2626 49.4517 61.7903 50.18C61.1308 50.5049 60.1115 50.8822 52.9864 50.3179C50.9112 50.1538 49.8752 50.0718 49.1024 49.9635C47.8133 49.7831 47.337 49.6518 46.3577 49.6584C44.8021 49.6682 44.6155 50.0094 43.443 50.0029C43.02 49.9996 40.172 49.9766 39.5224 48.3362C39.096 47.26 39.7622 45.8558 40.7149 45.1635C41.4178 44.6517 42.1806 44.6025 42.7901 44.5697C44.6788 44.4712 45.0253 45.3637 46.2677 45.2521C48.1065 45.0815 48.1431 42.9915 50.4315 42.3452Z" fill="white"/>
<path d="M19.8161 44.2713C19.6929 45.0029 18.3471 45.2687 18.2205 45.2949C17.2612 45.4754 16.7649 45.1177 15.4058 44.7896C12.9908 44.2056 12.4446 44.2614 12.0315 44.4255C11.4919 44.6387 11.5152 44.8454 10.8823 45.0521C10.6191 45.1374 9.64982 45.436 8.61387 44.9898C8.31075 44.8585 7.38472 44.4583 7.17487 43.5593C7.0383 42.9687 7.29812 42.4733 7.36141 42.3519C7.64788 41.8106 8.12088 41.5809 8.44399 41.4201C8.64052 41.3217 9.08688 41.1117 9.69646 41.1248C10.1228 41.1347 10.4559 41.2462 10.6591 41.3315C10.7391 41.0494 10.899 40.6524 11.2221 40.2817C12.1814 39.1793 14.2067 38.7331 15.599 39.714C16.7882 40.5507 16.8948 41.991 16.9081 42.2141C17.3345 42.2404 18.1772 42.3585 18.94 42.9622C19.2598 43.2115 19.9094 43.7201 19.8161 44.2713Z" fill="white"/>
<path d="M19.1299 43.0999C17.8108 43.6445 16.2452 43.592 15.1793 42.6209C14.7796 42.7816 13.9535 43.0507 12.9109 42.9293C12.1081 42.8374 11.5019 42.5585 11.1521 42.3584C11.0355 42.552 10.7923 42.8932 10.356 43.1589C10.2294 43.2377 9.45994 43.6905 8.49061 43.4477C7.78776 43.2705 7.37472 42.8243 7.22815 42.6504C7.16486 42.8473 7.08825 43.1786 7.17152 43.5592C7.37139 44.4516 8.29741 44.8552 8.61053 44.9897C9.64648 45.4359 10.6125 45.1373 10.879 45.052C11.5118 44.8453 11.4885 44.6386 12.0282 44.4254C12.4445 44.2613 12.9875 44.2056 15.4025 44.7896C16.7582 45.1177 17.2579 45.4753 18.2172 45.2948C18.3438 45.2719 19.6895 45.0061 19.8128 44.2712C19.896 43.7922 19.4164 43.3296 19.1299 43.0999Z" fill="#E9F4F6"/>
<path d="M65.028 43.0112C64.9015 43.3229 63.6024 46.3939 60.1814 47.2403C57.2401 47.9654 54.925 46.5021 54.552 46.2561C52.8098 48.0573 48.8093 48.8185 46.8173 47.2272C46.5642 47.3781 44.7154 48.451 42.5902 47.6964C41.1279 47.178 40.3751 46.0887 40.1386 45.718C39.9521 45.846 39.609 46.1248 39.4191 46.5907C39.0793 47.411 39.4624 48.1951 39.5324 48.3329C40.3385 49.9143 42.9533 49.9898 43.2831 49.9963C43.3564 49.9996 43.413 49.9996 43.4497 49.9996C44.6222 50.0094 44.8087 49.6682 46.3643 49.6551C47.3436 49.6485 47.82 49.7798 49.1091 49.9602C49.8785 50.0685 50.9178 50.1505 52.993 50.3146C60.1148 50.8789 61.1374 50.5049 61.7969 50.1768C63.2259 49.4681 64.0354 48.3887 64.2186 48.1262C64.4351 47.8145 65.5643 46.1314 65.2579 43.9725C65.1979 43.5657 65.1046 43.2376 65.028 43.0112Z" fill="#CEEAF0"/>
</g>
<defs>
<clipPath id="clip0_63_5673">
<rect width="415.071" height="90.0401" fill="white"/>
</clipPath>
</defs>
</svg>
