<svg width="394" height="73" viewBox="0 0 394 73" fill="none" xmlns="http://www.w3.org/2000/svg">
<g clip-path="url(#clip0_49_5855)">
<path d="M95.6067 36.6048C95.6067 36.6048 93.121 37.6649 78.3403 37.6649C70.0101 37.6649 54.6414 34.7279 54.6414 34.7279L95.6067 36.6048Z" fill="#263238"/>
<path d="M102.627 34.6932C102.627 34.6932 100.257 37.1436 94.493 37.1262C88.7286 37.1088 53.8305 34.6411 54.0622 34.6932C54.2849 34.7453 102.636 34.2848 102.636 34.2848L102.627 34.6932Z" fill="#455A64"/>
<path d="M102.197 37.6683H105.2V32.672H102.197V37.6683Z" fill="#E0E0E0"/>
<path d="M98.0566 38.725V37.0219H108.579V39.2116L98.0566 38.725Z" fill="#263238"/>
<path d="M100.623 69.633L97.4421 48.179L95.9988 46.8408V40.0631L97.0501 38.725H109.14L108.891 47.0928L107.358 69.4766C107.287 70.4933 106.441 71.284 105.416 71.284H102.565C101.585 71.2927 100.765 70.5888 100.623 69.633Z" fill="#00B4D8"/>
<path d="M112.686 38.7249L170.187 33.3289L168.655 41.4447L111.465 47.1015H107.278V38.7249H112.686Z" fill="#00B4D8"/>
<path d="M146.55 34.0327C146.55 34.0327 116.276 38.0559 111.724 37.3347C107.171 36.6221 103.661 34.4759 103.661 34.4759L146.55 34.0327Z" fill="#455A64"/>
<path opacity="0.3" d="M102.627 34.6932C102.627 34.6932 100.257 37.1436 94.493 37.1262C88.7286 37.1088 53.8305 34.6411 54.0622 34.6932C54.2849 34.7453 102.636 34.2848 102.636 34.2848L102.627 34.6932Z" fill="black"/>
<path opacity="0.3" d="M146.55 34.0327C146.55 34.0327 116.276 38.0559 111.724 37.3347C107.171 36.6221 103.661 34.4759 103.661 34.4759L146.55 34.0327Z" fill="black"/>
<path d="M102.197 33.1255H105.2V32.6736H102.197V33.1255Z" fill="#00B4D8"/>
<path opacity="0.3" d="M95.9988 40.0631L97.745 39.6808L97.059 38.725L95.9988 40.0631Z" fill="black"/>
<path d="M109.336 42.4615C109.461 42.4702 109.479 43.7127 109.372 45.2421C109.265 46.7714 109.069 47.9966 108.944 47.9879C108.819 47.9792 108.801 46.7366 108.908 45.2073C109.015 43.6867 109.211 42.4528 109.336 42.4615Z" fill="#263238"/>
<path opacity="0.3" d="M168.013 41.5056L167.015 38.1168L151.7 35.0581L149.749 35.1624C149.749 35.1624 150.31 38.5078 153.794 39.733C157.277 40.9582 163.131 40.2109 163.131 40.2109L163.674 41.9314L168.013 41.5056Z" fill="black"/>
<path d="M299.881 37.3433C299.881 37.3433 302.367 38.4034 317.148 38.4034C325.478 38.4034 340.846 35.4664 340.846 35.4664L299.881 37.3433Z" fill="#263238"/>
<path d="M292.87 35.4404C292.87 35.4404 295.239 37.8908 301.004 37.8734C306.768 37.856 341.666 35.3796 341.435 35.4404C341.212 35.4925 292.861 35.032 292.861 35.032L292.87 35.4404Z" fill="#455A64"/>
<path d="M293.297 33.4158H290.295V38.4122H293.297V33.4158Z" fill="#E0E0E0"/>
<path d="M297.44 39.4723V37.7692H286.918V39.9589L297.44 39.4723Z" fill="#263238"/>
<path d="M294.874 70.3803L298.055 48.9263L299.498 47.5881V40.8104L298.447 39.4723H286.348L286.597 47.8401L288.13 70.2239C288.201 71.2406 289.047 72.0313 290.072 72.0313H292.923C293.912 72.04 294.732 71.3361 294.874 70.3803Z" fill="#00B4D8"/>
<path d="M282.811 39.4723L225.31 34.0675L226.842 42.1834L284.031 47.8401H288.219V39.4723H282.811Z" fill="#00B4D8"/>
<path d="M248.946 34.78C248.946 34.78 279.22 38.8032 283.773 38.082C288.326 37.3695 291.836 35.2232 291.836 35.2232L248.946 34.78Z" fill="#455A64"/>
<path opacity="0.3" d="M292.87 35.4404C292.87 35.4404 295.239 37.8908 301.004 37.8734C306.768 37.856 341.666 35.3796 341.435 35.4404C341.212 35.4925 292.861 35.032 292.861 35.032L292.87 35.4404Z" fill="black"/>
<path opacity="0.3" d="M248.946 34.78C248.946 34.78 279.22 38.8032 283.773 38.082C288.326 37.3695 291.836 35.2232 291.836 35.2232L248.946 34.78Z" fill="black"/>
<path d="M293.297 33.4158H290.295V33.8676H293.297V33.4158Z" fill="#00B4D8"/>
<path opacity="0.3" d="M299.489 40.8104L297.752 40.4194L298.438 39.4723L299.489 40.8104Z" fill="black"/>
<path d="M286.161 43.2087C286.286 43.2 286.482 44.4339 286.588 45.9545C286.695 47.4838 286.678 48.7264 286.553 48.7351C286.428 48.7438 286.232 47.5099 286.125 45.9893C286.009 44.4599 286.027 43.2174 286.161 43.2087Z" fill="#263238"/>
<path d="M82.1714 6.3746C82.1714 6.3746 86.1806 8.08641 110.022 8.08641C123.466 8.08641 148.252 3.35071 148.252 3.35071L82.1714 6.3746Z" fill="#263238"/>
<path d="M70.8564 3.30724C70.8564 3.30724 74.6786 7.2609 83.9711 7.23483C93.2636 7.20876 149.562 3.22035 149.197 3.30724C148.84 3.39414 70.8386 2.64685 70.8386 2.64685L70.8564 3.30724Z" fill="#455A64"/>
<path d="M71.5424 0.0400391H66.7046V8.09507H71.5424V0.0400391Z" fill="#E0E0E0"/>
<path d="M62.2231 9.46805V7.2262H76.0238V10.1024L62.2231 9.46805Z" fill="#263238"/>
<path d="M65.591 49.9865L61.4125 21.8677L59.5237 20.1125V11.2233L60.9046 9.46802H76.7455L76.4159 20.434L74.4024 49.7779C74.3133 51.1161 73.1996 52.1501 71.8543 52.1501H68.1123C66.8561 52.1588 65.7781 51.2377 65.591 49.9865Z" fill="#00B4D8"/>
<path d="M81.4051 9.46802L155.781 20.1733L153.767 30.8178L79.8014 20.4427H74.3132V9.46802H81.4051Z" fill="#00B4D8"/>
<path d="M0 2.2384C0 2.2384 48.8324 8.72066 56.1826 7.57367C63.5329 6.42667 69.1992 2.95962 69.1992 2.95962L0 2.2384Z" fill="#455A64"/>
<path opacity="0.3" d="M145.054 18.6353V29.5925L151.451 30.4875V19.5476L145.054 18.6353Z" fill="black"/>
<path d="M71.5424 0.0400391H66.7046V0.761256H71.5424V0.0400391Z" fill="#00B4D8"/>
<path opacity="0.3" d="M59.5325 11.2233L61.8133 10.7193L60.9134 9.46802L59.5325 11.2233Z" fill="black"/>
<path d="M77.0128 14.3688C77.1375 14.3775 77.1286 16.0111 76.986 18.0096C76.8435 20.0082 76.6296 21.6244 76.496 21.6157C76.3713 21.607 76.3802 19.9734 76.5227 17.9749C76.6653 15.9763 76.888 14.3601 77.0128 14.3688Z" fill="#263238"/>
<path d="M311.829 6.37448C311.829 6.37448 307.819 8.08628 283.978 8.08628C270.533 8.08628 245.748 3.35059 245.748 3.35059L311.829 6.37448Z" fill="#263238"/>
<path d="M323.144 3.30712C323.144 3.30712 319.321 7.26078 310.029 7.23471C300.736 7.20864 244.438 3.22023 244.803 3.30712C245.16 3.39401 323.161 2.64673 323.161 2.64673L323.144 3.30712Z" fill="#455A64"/>
<path d="M322.456 8.09314H327.293V0.0381069H322.456V8.09314Z" fill="#E0E0E0"/>
<path d="M331.777 9.46793V7.22607H317.976V10.1023L331.777 9.46793Z" fill="#263238"/>
<path d="M328.409 49.9864L332.587 21.8676L334.476 20.1124V11.2231L333.095 9.4679H317.254L317.584 20.4339L319.598 49.7778C319.687 51.116 320.8 52.15 322.146 52.15H325.888C327.144 52.1587 328.222 51.2376 328.409 49.9864Z" fill="#00B4D8"/>
<path d="M312.595 9.4679L238.219 20.1732L240.224 30.8176L314.199 20.4426H319.687V9.4679H312.595Z" fill="#00B4D8"/>
<path d="M394 2.2384C394 2.2384 345.168 8.72066 337.817 7.57367C330.467 6.42667 324.801 2.95962 324.801 2.95962L394 2.2384Z" fill="#455A64"/>
<path opacity="0.3" d="M248.946 18.6351V29.5924L242.549 30.4874V19.5475L248.946 18.6351Z" fill="black"/>
<path d="M322.456 0.764771L327.293 0.764771V0.0435541L322.456 0.0435541V0.764771Z" fill="#00B4D8"/>
<path opacity="0.3" d="M334.467 11.2231L332.187 10.7192L333.086 9.4679L334.467 11.2231Z" fill="black"/>
<path d="M316.987 14.3687C317.112 14.36 317.335 15.9762 317.477 17.9748C317.62 19.9733 317.629 21.6069 317.504 21.6156C317.379 21.6243 317.156 20.0081 317.014 18.0095C316.871 16.0023 316.853 14.3774 316.987 14.3687Z" fill="#263238"/>
<path opacity="0.3" d="M227.483 42.2529L228.481 38.8641L243.797 35.8054L245.748 35.9097C245.748 35.9097 245.177 39.2551 241.703 40.4803C238.228 41.7055 232.366 40.9582 232.366 40.9582L231.822 42.6787L227.483 42.2529Z" fill="black"/>
<path d="M166.721 38.6468L171.729 54.5222C173.047 58.7105 176.335 61.465 180.005 61.465H215.545C219.118 61.465 222.334 58.8495 223.724 54.8177L229.889 36.8655L166.721 38.6468Z" fill="#00B4D8"/>
<path d="M151.584 32.4078V18.1399C151.584 14.6641 154.418 11.8401 157.91 11.8401H165.608L166.677 9.96318C168.174 7.34769 170.962 5.72278 173.992 5.72278H219.501C222.468 5.72278 225.212 7.27817 226.726 9.80678L227.947 11.7184L238.772 11.7097C242.042 11.7793 244.661 14.4469 244.661 17.7054V32.7119C244.661 36.0226 241.961 38.7076 238.638 38.7076H157.91C154.418 38.7076 151.584 35.8835 151.584 32.4078Z" fill="#00B4D8"/>
<path opacity="0.3" d="M156.912 31.6084H156.734C156.208 31.6084 155.781 31.1913 155.781 30.6787V21.5201C155.781 21.0074 156.208 20.5903 156.734 20.5903H156.912C157.438 20.5903 157.866 21.0074 157.866 21.5201V30.6787C157.866 31.1913 157.438 31.6084 156.912 31.6084Z" fill="black"/>
<path opacity="0.3" d="M160.681 31.6084H160.503C159.977 31.6084 159.549 31.1913 159.549 30.6787V21.5201C159.549 21.0074 159.977 20.5903 160.503 20.5903H160.681C161.206 20.5903 161.634 21.0074 161.634 21.5201V30.6787C161.634 31.1913 161.206 31.6084 160.681 31.6084Z" fill="black"/>
<path opacity="0.3" d="M164.441 31.6084H164.262C163.737 31.6084 163.309 31.1913 163.309 30.6787V21.5201C163.309 21.0074 163.737 20.5903 164.262 20.5903H164.441C164.966 20.5903 165.394 21.0074 165.394 21.5201V30.6787C165.394 31.1913 164.966 31.6084 164.441 31.6084Z" fill="black"/>
<path opacity="0.3" d="M233.497 31.6084H233.319C232.793 31.6084 232.366 31.1913 232.366 30.6787V21.5201C232.366 21.0074 232.793 20.5903 233.319 20.5903H233.497C234.023 20.5903 234.451 21.0074 234.451 21.5201V30.6787C234.451 31.1913 234.023 31.6084 233.497 31.6084Z" fill="black"/>
<path opacity="0.3" d="M237.266 31.6084H237.088C236.562 31.6084 236.135 31.1913 236.135 30.6787V21.5201C236.135 21.0074 236.562 20.5903 237.088 20.5903H237.266C237.792 20.5903 238.219 21.0074 238.219 21.5201V30.6787C238.219 31.1913 237.792 31.6084 237.266 31.6084Z" fill="black"/>
<path opacity="0.3" d="M241.035 31.6084H240.856C240.331 31.6084 239.903 31.1913 239.903 30.6787V21.5201C239.903 21.0074 240.331 20.5903 240.856 20.5903H241.035C241.56 20.5903 241.988 21.0074 241.988 21.5201V30.6787C241.988 31.1913 241.56 31.6084 241.035 31.6084Z" fill="black"/>
<path d="M211.687 57.4071H182.901C180.077 57.4071 177.787 55.174 177.787 52.4194V43.6953C177.787 40.9408 180.077 38.7076 182.901 38.7076H211.687C214.511 38.7076 216.801 40.9408 216.801 43.6953V52.4108C216.81 55.1653 214.511 57.4071 211.687 57.4071Z" fill="#455A64"/>
<path d="M229.47 11.7271C229.47 11.8488 214.993 11.9531 197.138 11.9531C179.275 11.9531 164.797 11.8488 164.797 11.7271C164.797 11.6055 179.275 11.5012 197.138 11.5012C214.993 11.5012 229.47 11.6055 229.47 11.7271Z" fill="#263238"/>
<path d="M230.985 38.7076C230.985 38.8293 216.311 38.9335 198.207 38.9335C180.103 38.9335 165.43 38.8293 165.43 38.7076C165.43 38.586 180.103 38.4817 198.207 38.4817C216.311 38.4817 230.985 38.5773 230.985 38.7076Z" fill="#263238"/>
<path d="M151.451 19.0784C151.575 19.0784 151.682 21.9459 151.682 25.4824C151.682 29.019 151.575 31.8865 151.451 31.8865C151.326 31.8865 151.219 29.019 151.219 25.4824C151.219 21.9459 151.317 19.0784 151.451 19.0784Z" fill="#263238"/>
<path d="M244.803 19.0784C244.928 19.0784 245.035 21.9459 245.035 25.4824C245.035 29.019 244.928 31.8865 244.803 31.8865C244.679 31.8865 244.572 29.019 244.572 25.4824C244.572 21.9459 244.679 19.0784 244.803 19.0784Z" fill="#263238"/>
<path opacity="0.3" d="M197.557 56.0342C201.985 56.0342 205.575 52.4629 205.575 48.0574C205.575 43.6519 201.985 40.0806 197.557 40.0806C193.128 40.0806 189.538 43.6519 189.538 48.0574C189.538 52.4629 193.128 56.0342 197.557 56.0342Z" fill="black"/>
<path opacity="0.3" d="M202.475 48.0574C202.475 50.7598 200.274 52.9582 197.557 52.9582C194.839 52.9582 192.639 50.7685 192.639 48.0574C192.639 45.355 194.839 43.1566 197.557 43.1566C200.265 43.1566 202.475 45.3463 202.475 48.0574Z" fill="black"/>
<path d="M196.06 48.9176C196.67 48.9176 197.165 48.4274 197.165 47.8228C197.165 47.2181 196.67 46.7279 196.06 46.7279C195.45 46.7279 194.955 47.2181 194.955 47.8228C194.955 48.4274 195.45 48.9176 196.06 48.9176Z" fill="#00B4D8"/>
<path d="M202.938 43.4781C202.056 41.5577 199.472 40.6454 197.396 40.7149C196.987 40.7409 196.568 40.767 196.202 40.9495C195.837 41.132 195.543 41.5143 195.597 41.9227C195.65 42.3745 196.113 42.6787 196.568 42.7482C197.013 42.8177 197.477 42.7134 197.931 42.6874C199.463 42.5918 201.022 43.3738 201.842 44.6685C201.931 44.8076 202.02 44.964 202.163 45.0595C202.501 45.2768 202.974 45.0074 203.107 44.6338C203.223 44.2514 203.107 43.8344 202.938 43.4781Z" fill="white"/>
<path d="M203.686 47.3969C204.237 47.3969 204.684 46.9534 204.684 46.4064C204.684 45.8593 204.237 45.4158 203.686 45.4158C203.135 45.4158 202.688 45.8593 202.688 46.4064C202.688 46.9534 203.135 47.3969 203.686 47.3969Z" fill="white"/>
<path d="M200.23 7.99071H190.866C190.483 7.99071 190.171 7.68658 190.171 7.31294V7.15653C190.171 6.78289 190.483 6.47876 190.866 6.47876H200.23C200.613 6.47876 200.925 6.78289 200.925 7.15653V7.31294C200.925 7.68658 200.613 7.99071 200.23 7.99071Z" fill="white"/>
<path d="M204.319 7.99071H202.902C202.519 7.99071 202.208 7.68658 202.208 7.31294V7.15653C202.208 6.78289 202.519 6.47876 202.902 6.47876H204.319C204.702 6.47876 205.014 6.78289 205.014 7.15653V7.31294C205.014 7.68658 204.702 7.99071 204.319 7.99071Z" fill="white"/>
</g>
<defs>
<clipPath id="clip0_49_5855">
<rect width="394" height="72" fill="white" transform="translate(0 0.0400391)"/>
</clipPath>
</defs>
</svg>
