<svg width="33" height="33" viewBox="0 0 33 33" fill="none" xmlns="http://www.w3.org/2000/svg">
<path d="M16.5 9.625C8.90608 9.625 2.75 10.8562 2.75 12.375C2.75 13.4932 6.08707 14.4556 10.8781 14.8853C11.7185 14.9607 12.375 15.6563 12.375 16.5V16.5C12.375 18.7782 14.2218 20.625 16.5 20.625C18.7782 20.625 20.625 18.7782 20.625 16.5V16.5C20.625 15.6563 21.2815 14.9607 22.1219 14.8853C26.9129 14.4556 30.25 13.4932 30.25 12.375C30.25 10.8562 24.0938 9.625 16.5 9.625Z" stroke="#0077B6" stroke-width="1.5"/>
<path d="M16.4995 16.5H16.5137" stroke="#0077B6" stroke-width="1.6" stroke-linecap="round" stroke-linejoin="round"/>
<path d="M4.125 4.125H8.25M8.25 4.125H12.375M8.25 4.125V9.625" stroke="#0077B6" stroke-width="1.5" stroke-linejoin="round"/>
<path d="M20.625 4.125H24.75M24.75 4.125H28.875M24.75 4.125V9.625" stroke="#0077B6" stroke-width="1.5" stroke-linejoin="round"/>
<path d="M6.875 28.875V26.8125C6.875 23.0156 10.6405 19.9375 14.4375 19.9375M26.125 28.875V26.8125C26.125 23.0156 22.3594 19.9375 18.5625 19.9375" stroke="#0077B6" stroke-width="1.5" stroke-linejoin="round"/>
</svg>
