<svg width="207" height="33" viewBox="0 0 207 33" fill="none" xmlns="http://www.w3.org/2000/svg">
<path d="M102.573 0C102.573 0 90.3874 3.79292 88.5533 3.12179C86.7192 2.45065 85.3052 0.422001 85.3052 0.422001L102.573 0Z" fill="#00B4D8"/>
<path d="M85.3003 0.460794C85.3003 0.460794 84.3049 3.2195 81.8849 3.20131C79.4649 3.18312 64.8032 0.400163 64.8983 0.460794C64.9911 0.521425 85.3049 0 85.3049 0L85.3003 0.460794Z" fill="#00B4D8"/>
<path d="M85.3052 0H86.875V3.2014H85.3052V0Z" fill="#F8F8F8"/>
<path d="M106.34 0C106.34 0 118.526 3.79292 120.36 3.12179C122.194 2.45065 123.608 0.422001 123.608 0.422001L106.34 0Z" fill="#00B4D8"/>
<path d="M123.613 0.460794C123.613 0.460794 124.608 3.2195 127.028 3.20131C129.448 3.18312 144.11 0.400163 144.015 0.460794C143.922 0.521425 123.608 0 123.608 0L123.613 0.460794Z" fill="#00B4D8"/>
<path d="M123.608 0H122.038V3.2014H123.608V0Z" fill="#F8F8F8"/>
<path d="M16.7502 13.6726H4.67919V19.4812H14.2071V23.3191H4.67919V32.6543H0V9.83479H16.7502V13.6726Z" fill="#F8F8F8"/>
<path d="M24.9321 7.79486V27.3298C24.9321 28.1365 25.0677 28.7013 25.339 29.024C25.6103 29.3467 26.0623 29.508 26.6953 29.508C27.0796 29.508 27.396 29.485 27.6447 29.4389C27.8933 29.3697 28.2098 29.2775 28.5941 29.1623L28.1872 32.274C27.8029 32.5045 27.3169 32.6774 26.7292 32.7926C26.1641 32.9309 25.599 33.0001 25.0338 33.0001C23.3837 33.0001 22.1743 32.5967 21.4058 31.79C20.6598 30.9602 20.2868 29.6463 20.2868 27.8484V7.79486H24.9321Z" fill="#F8F8F8"/>
<path d="M39.1167 33.0001C37.3309 33.0001 35.7712 32.6428 34.4375 31.9283C33.1264 31.2137 32.1092 30.188 31.3859 28.8511C30.6625 27.5142 30.3008 25.9007 30.3008 24.0106C30.3008 22.1205 30.6625 20.507 31.3859 19.1701C32.1092 17.8332 33.1151 16.8074 34.4036 16.0929C35.7147 15.3783 37.2066 15.021 38.8794 15.021C40.5973 15.021 42.0553 15.3783 43.2534 16.0929C44.4514 16.7844 45.3669 17.741 45.9999 18.9626C46.6328 20.1612 46.9493 21.5327 46.9493 23.077C46.9493 23.538 46.938 23.976 46.9154 24.3909C46.8928 24.8058 46.8588 25.1746 46.8136 25.4973H33.2847V22.2127H44.7792L42.5413 23.0425C42.5413 21.5903 42.2136 20.4724 41.558 19.6887C40.9251 18.905 40.0209 18.5131 38.8454 18.5131C37.9865 18.5131 37.2405 18.7206 36.6076 19.1355C35.9972 19.5504 35.5338 20.1727 35.2174 21.0025C34.9009 21.8093 34.7427 22.835 34.7427 24.0797C34.7427 25.3014 34.9122 26.3156 35.2513 27.1223C35.613 27.906 36.1103 28.4938 36.7432 28.8857C37.3987 29.2775 38.1786 29.4734 39.0828 29.4734C40.0774 29.4734 40.8799 29.2775 41.4902 28.8857C42.1005 28.4938 42.5752 27.9521 42.9143 27.2606L46.6102 28.7128C46.2485 29.6117 45.6947 30.3839 44.9487 31.0293C44.2254 31.6747 43.3551 32.1703 42.3379 32.516C41.3433 32.8387 40.2695 33.0001 39.1167 33.0001Z" fill="#F8F8F8"/>
<path d="M58.8202 33.0001C57.0344 33.0001 55.4747 32.6428 54.141 31.9283C52.8299 31.2137 51.8127 30.188 51.0894 28.8511C50.366 27.5142 50.0043 25.9007 50.0043 24.0106C50.0043 22.1205 50.366 20.507 51.0894 19.1701C51.8127 17.8332 52.8186 16.8074 54.1071 16.0929C55.4182 15.3783 56.9101 15.021 58.5829 15.021C60.3008 15.021 61.7588 15.3783 62.9569 16.0929C64.155 16.7844 65.0704 17.741 65.7034 18.9626C66.3363 20.1612 66.6528 21.5327 66.6528 23.077C66.6528 23.538 66.6415 23.976 66.6189 24.3909C66.5963 24.8058 66.5624 25.1746 66.5172 25.4973H52.9882V22.2127H64.4827L62.2448 23.0425C62.2448 21.5903 61.9171 20.4724 61.2615 19.6887C60.6286 18.905 59.7244 18.5131 58.549 18.5131C57.69 18.5131 56.944 18.7206 56.3111 19.1355C55.7008 19.5504 55.2374 20.1727 54.9209 21.0025C54.6044 21.8093 54.4462 22.835 54.4462 24.0797C54.4462 25.3014 54.6157 26.3156 54.9548 27.1223C55.3165 27.906 55.8138 28.4938 56.4467 28.8857C57.1023 29.2775 57.8821 29.4734 58.7863 29.4734C59.7809 29.4734 60.5834 29.2775 61.1937 28.8857C61.8041 28.4938 62.2788 27.9521 62.6178 27.2606L66.3137 28.7128C65.952 29.6117 65.3982 30.3839 64.6523 31.0293C63.9289 31.6747 63.0586 32.1703 62.0414 32.516C61.0468 32.8387 59.9731 33.0001 58.8202 33.0001Z" fill="#F8F8F8"/>
<path d="M76.3608 10.0768V27.0186C76.3608 27.8484 76.5643 28.4592 76.9712 28.8511C77.4007 29.2199 77.9771 29.4043 78.7004 29.4043C79.2655 29.4043 79.7628 29.3236 80.1923 29.1623C80.6218 28.9779 81.0061 28.7358 81.3452 28.4362L82.0911 31.5825C81.5486 32.0205 80.8705 32.3662 80.0567 32.6198C79.2429 32.8733 78.384 33.0001 77.4798 33.0001C76.3495 33.0001 75.3436 32.8272 74.462 32.4815C73.603 32.1357 72.9249 31.5825 72.4276 30.8219C71.9529 30.0612 71.7155 29.047 71.7155 27.7793V11.3907L76.3608 10.0768ZM81.786 15.3668V18.8935H68.5961V15.3668H81.786Z" fill="#F8F8F8"/>
<path d="M92.0945 32.6543L83.4142 2.22827H90.06L95.9373 27.3528L101.905 2.22827H107.873L113.931 27.3528L119.763 2.22827H126.137L117.457 32.6543H110.45L106.29 16.0583L104.889 8.86669H104.798L103.397 16.0583L99.2828 32.6543H92.0945Z" fill="#F8F8F8"/>
<path d="M131.93 12.8774C130.958 12.8774 130.234 12.6699 129.76 12.255C129.285 11.8171 129.048 11.1832 129.048 10.3534C129.048 9.50056 129.285 8.86669 129.76 8.45179C130.234 8.01383 130.958 7.79486 131.93 7.79486C132.902 7.79486 133.625 8.01383 134.1 8.45179C134.575 8.86669 134.812 9.50056 134.812 10.3534C134.812 11.1832 134.575 11.8171 134.1 12.255C133.625 12.6699 132.902 12.8774 131.93 12.8774ZM134.235 15.3668V32.6543H129.59V15.3668H134.235Z" fill="#F8F8F8"/>
<path d="M138.244 32.6543V29.6117L145.772 20.7605L147.704 18.7897L144.89 18.8589H138.312V15.3668H152.858V18.4094L145.365 27.2261L143.432 29.2314L146.518 29.1623H153.129V32.6543H138.244Z" fill="#F8F8F8"/>
<path d="M166.707 21.6249C166.707 20.6337 166.425 19.8616 165.859 19.3084C165.317 18.7552 164.594 18.4786 163.689 18.4786C162.853 18.4786 162.118 18.6975 161.485 19.1355C160.853 19.5734 160.389 20.2995 160.095 21.3137L156.128 20.069C156.512 18.5477 157.349 17.3261 158.637 16.4041C159.948 15.4821 161.7 15.021 163.893 15.021C165.385 15.021 166.685 15.2631 167.792 15.7471C168.9 16.2081 169.759 16.9112 170.369 17.8562C171.002 18.8013 171.319 19.9883 171.319 21.4174V28.4362C171.319 29.3121 171.725 29.75 172.539 29.75C172.923 29.75 173.285 29.6924 173.624 29.5772L173.353 32.516C172.765 32.8157 172.031 32.9655 171.149 32.9655C170.358 32.9655 169.646 32.8272 169.013 32.5506C168.38 32.274 167.883 31.8591 167.521 31.3059C167.159 30.7297 166.978 30.0151 166.978 29.1623V29.024L167.792 28.8857C167.657 29.7616 167.284 30.5107 166.673 31.133C166.063 31.7323 165.317 32.1933 164.435 32.516C163.576 32.8387 162.683 33.0001 161.757 33.0001C160.604 33.0001 159.609 32.8272 158.773 32.4815C157.936 32.1127 157.292 31.5825 156.84 30.891C156.388 30.1995 156.162 29.3467 156.162 28.3325C156.162 27.0417 156.569 25.9929 157.383 25.1861C158.196 24.3563 159.361 23.7916 160.875 23.4919L167.25 22.1781L167.216 25.117L163.147 25.9468C162.378 26.1081 161.791 26.3271 161.384 26.6037C160.999 26.8573 160.807 27.2837 160.807 27.883C160.807 28.4592 161.011 28.8972 161.418 29.1968C161.847 29.4965 162.356 29.6463 162.943 29.6463C163.418 29.6463 163.882 29.5887 164.334 29.4734C164.786 29.3582 165.193 29.1738 165.554 28.9202C165.916 28.6667 166.199 28.3209 166.402 27.883C166.605 27.445 166.707 26.9149 166.707 26.2925V21.6249Z" fill="#F8F8F8"/>
<path d="M176.582 32.6543V15.3668H180.616L180.922 18.7552C181.374 17.5566 182.029 16.6346 182.888 15.9892C183.77 15.3438 184.866 15.021 186.177 15.021C186.562 15.021 186.912 15.0556 187.228 15.1248C187.545 15.1939 187.805 15.2861 188.008 15.4014L187.466 19.3775C187.24 19.2853 186.957 19.2162 186.618 19.1701C186.302 19.124 185.883 19.1009 185.364 19.1009C184.685 19.1009 184.03 19.2738 183.397 19.6195C182.764 19.9422 182.244 20.4493 181.837 21.1408C181.43 21.8093 181.227 22.6621 181.227 23.6994V32.6543H176.582Z" fill="#F8F8F8"/>
<path d="M197.031 33.0001C195.63 33.0001 194.375 32.6428 193.268 31.9283C192.183 31.2137 191.324 30.188 190.691 28.8511C190.08 27.5142 189.775 25.9122 189.775 24.0451C189.775 22.132 190.103 20.507 190.758 19.1701C191.414 17.8101 192.296 16.7844 193.403 16.0929C194.533 15.3783 195.799 15.021 197.201 15.021C198.693 15.021 199.925 15.459 200.897 16.3349C201.869 17.2108 202.502 18.3403 202.796 19.7233L202.355 20.2765V7.79486H207V32.6543H202.829L202.524 27.3989L203.101 27.6755C202.942 28.7589 202.581 29.7039 202.016 30.5107C201.451 31.2944 200.738 31.9052 199.879 32.3432C199.021 32.7811 198.071 33.0001 197.031 33.0001ZM198.388 29.3697C199.201 29.3697 199.902 29.1623 200.49 28.7474C201.078 28.3094 201.53 27.6755 201.846 26.8457C202.185 26.0159 202.355 25.0248 202.355 23.8723C202.355 22.7659 202.196 21.8323 201.88 21.0717C201.564 20.288 201.111 19.6887 200.524 19.2738C199.936 18.8589 199.247 18.6514 198.455 18.6514C197.19 18.6514 196.195 19.1124 195.472 20.0344C194.771 20.9334 194.42 22.2588 194.42 24.0106C194.42 25.7624 194.771 27.0993 195.472 28.0213C196.172 28.9202 197.144 29.3697 198.388 29.3697Z" fill="#F8F8F8"/>
</svg>
