<svg width="32" height="33" viewBox="0 0 32 33" fill="none" xmlns="http://www.w3.org/2000/svg">
<path d="M2.66675 29.3733H17.3334C23.9609 29.3733 29.3334 24.0008 29.3334 17.3733C29.3334 10.7459 23.9609 5.37329 17.3334 5.37329C11.1567 5.37329 5.99667 10.04 5.33341 16.04" stroke="#F8F8F8" stroke-width="2" stroke-linejoin="round"/>
<path d="M24.6667 7.37329L26.6667 5.37329M8 5.37329L10 7.37329" stroke="#F8F8F8" stroke-width="2" stroke-linejoin="round"/>
<path d="M22.0001 12.04L18.081 15.9591M18.081 15.9591C17.719 15.5972 17.219 15.3734 16.6667 15.3734C15.5622 15.3734 14.6667 16.2688 14.6667 17.3734C14.6667 18.4779 15.5622 19.3734 16.6667 19.3734C17.7713 19.3734 18.6667 18.4779 18.6667 17.3734C18.6667 16.8211 18.4429 16.3211 18.081 15.9591Z" stroke="#F8F8F8" stroke-width="2" stroke-linejoin="round"/>
<path d="M16.6667 4.70679V2.70679M12.6667 2.70679H20.6667" stroke="#F8F8F8" stroke-width="2" stroke-linejoin="round"/>
<path d="M2.66675 20.04H6.66675" stroke="#F8F8F8" stroke-width="2" stroke-linejoin="round"/>
<path d="M2.66675 24.7068H9.33341" stroke="#F8F8F8" stroke-width="2" stroke-linejoin="round"/>
</svg>
