<svg width="32" height="33" viewBox="0 0 32 33" fill="none" xmlns="http://www.w3.org/2000/svg">
<path d="M9.99992 4.70679C7.92552 4.76901 6.68874 4.99991 5.83295 5.85648C4.66138 7.02915 4.66138 8.91652 4.66138 12.6913V21.366C4.66138 25.1408 4.66138 27.0281 5.83295 28.2008C7.00452 29.3735 8.89015 29.3735 12.6614 29.3735H19.3281C23.0993 29.3735 24.9849 29.3735 26.1565 28.2008C27.3281 27.0281 27.3281 25.1408 27.3281 21.366V12.6913C27.3281 8.91652 27.3281 7.02915 26.1565 5.85649C25.3007 4.99991 24.0639 4.76901 21.9895 4.70679" stroke="#F8F8F8" stroke-width="2"/>
<path d="M9.99487 5.04012C9.99487 3.75145 11.0396 2.70679 12.3282 2.70679H19.6616C20.9502 2.70679 21.9949 3.75145 21.9949 5.04012C21.9949 6.32879 20.9502 7.37345 19.6616 7.37345H12.3282C11.0396 7.37345 9.99487 6.32879 9.99487 5.04012Z" stroke="#F8F8F8" stroke-width="2" stroke-linejoin="round"/>
<path d="M18 14.7068H22.6667" stroke="#F8F8F8" stroke-width="2" stroke-linecap="round"/>
<path d="M9.33325 16.04C9.33325 16.04 9.99992 16.04 10.6666 17.3733C10.6666 17.3733 12.7842 14.04 14.6666 13.3733" stroke="#F8F8F8" stroke-width="2" stroke-linecap="round" stroke-linejoin="round"/>
<path d="M18 22.7068H22.6667" stroke="#F8F8F8" stroke-width="2" stroke-linecap="round"/>
<path d="M10.6667 22.7068H12.0001" stroke="#F8F8F8" stroke-width="2" stroke-linecap="round" stroke-linejoin="round"/>
</svg>
