<svg width="116" height="18" viewBox="0 0 116 18" fill="none" xmlns="http://www.w3.org/2000/svg">
<path d="M57.4805 0C57.4805 0 50.652 2.06887 49.6242 1.70279C48.5963 1.33672 47.804 0.230182 47.804 0.230182L57.4805 0Z" fill="#00B4D8"/>
<path d="M47.8014 0.251342C47.8014 0.251342 47.2436 1.75609 45.8874 1.74617C44.5313 1.73625 36.315 0.218271 36.3684 0.251342C36.4204 0.284414 47.804 0 47.804 0L47.8014 0.251342Z" fill="#00B4D8"/>
<path d="M47.8042 0H48.6838V1.74622H47.8042V0Z" fill="#101010"/>
<path d="M59.5916 0C59.5916 0 66.42 2.06887 67.4479 1.70279C68.4757 1.33672 69.2681 0.230182 69.2681 0.230182L59.5916 0Z" fill="#00B4D8"/>
<path d="M69.2707 0.251342C69.2707 0.251342 69.8285 1.75609 71.1846 1.74617C72.5408 1.73625 80.757 0.218271 80.7037 0.251342C80.6517 0.284414 69.2681 0 69.2681 0L69.2707 0.251342Z" fill="#00B4D8"/>
<path d="M69.2679 0H68.3882V1.74622H69.2679V0Z" fill="#101010"/>
<path d="M9.38656 7.45777H2.62216V10.6261H7.96147V12.7195H2.62216V17.8114H0V5.3644H9.38656V7.45777Z" fill="#101010"/>
<path d="M13.9716 4.25171V14.9071C13.9716 15.3472 14.0476 15.6552 14.1996 15.8312C14.3516 16.0072 14.605 16.0953 14.9597 16.0953C15.175 16.0953 15.3524 16.0827 15.4917 16.0575C15.631 16.0198 15.8084 15.9695 16.0237 15.9067L15.7957 17.604C15.5804 17.7297 15.308 17.824 14.9787 17.8869C14.662 17.9623 14.3453 18 14.0286 18C13.1039 18 12.4262 17.78 11.9955 17.34C11.5775 16.8873 11.3685 16.1707 11.3685 15.19V4.25171H13.9716Z" fill="#101010"/>
<path d="M21.9205 18C20.9197 18 20.0457 17.8051 19.2983 17.4154C18.5636 17.0256 17.9936 16.4661 17.5882 15.7369C17.1829 15.0077 16.9802 14.1276 16.9802 13.0966C16.9802 12.0657 17.1829 11.1856 17.5882 10.4564C17.9936 9.72715 18.5573 9.16766 19.2793 8.77791C20.014 8.38815 20.8501 8.19327 21.7875 8.19327C22.7502 8.19327 23.5672 8.38815 24.2386 8.77791C24.91 9.15509 25.423 9.67686 25.7777 10.3432C26.1324 10.997 26.3097 11.7451 26.3097 12.5875C26.3097 12.8389 26.3034 13.0778 26.2907 13.3041C26.2781 13.5304 26.2591 13.7316 26.2337 13.9076H18.6523V12.116H25.0937L23.8396 12.5686C23.8396 11.7765 23.6559 11.1667 23.2886 10.7393C22.9339 10.3118 22.4272 10.098 21.7685 10.098C21.2871 10.098 20.8691 10.2112 20.5144 10.4375C20.1724 10.6638 19.9127 11.0033 19.7353 11.4559C19.558 11.896 19.4693 12.4554 19.4693 13.1344C19.4693 13.8007 19.5643 14.3539 19.7543 14.794C19.957 15.2214 20.2357 15.542 20.5904 15.7558C20.9577 15.9695 21.3948 16.0764 21.9015 16.0764C22.4588 16.0764 22.9085 15.9695 23.2506 15.7558C23.5926 15.542 23.8586 15.2466 24.0486 14.8694L26.1197 15.6615C25.917 16.1518 25.6067 16.573 25.1887 16.9251C24.7833 17.2771 24.2956 17.5474 23.7256 17.736C23.1682 17.912 22.5665 18 21.9205 18Z" fill="#101010"/>
<path d="M32.9621 18C31.9613 18 31.0873 17.8051 30.3399 17.4154C29.6052 17.0256 29.0352 16.4661 28.6298 15.7369C28.2244 15.0077 28.0218 14.1276 28.0218 13.0966C28.0218 12.0657 28.2244 11.1856 28.6298 10.4564C29.0352 9.72715 29.5989 9.16766 30.3209 8.77791C31.0556 8.38815 31.8917 8.19327 32.829 8.19327C33.7918 8.19327 34.6088 8.38815 35.2802 8.77791C35.9516 9.15509 36.4646 9.67686 36.8193 10.3432C37.174 10.997 37.3513 11.7451 37.3513 12.5875C37.3513 12.8389 37.345 13.0778 37.3323 13.3041C37.3196 13.5304 37.3006 13.7316 37.2753 13.9076H29.6939V12.116H36.1352L34.8812 12.5686C34.8812 11.7765 34.6975 11.1667 34.3301 10.7393C33.9754 10.3118 33.4688 10.098 32.81 10.098C32.3287 10.098 31.9107 10.2112 31.556 10.4375C31.214 10.6638 30.9543 11.0033 30.7769 11.4559C30.5996 11.896 30.5109 12.4554 30.5109 13.1344C30.5109 13.8007 30.6059 14.3539 30.7959 14.794C30.9986 15.2214 31.2773 15.542 31.632 15.7558C31.9993 15.9695 32.4364 16.0764 32.9431 16.0764C33.5004 16.0764 33.9501 15.9695 34.2921 15.7558C34.6342 15.542 34.9002 15.2466 35.0902 14.8694L37.1613 15.6615C36.9586 16.1518 36.6483 16.573 36.2302 16.9251C35.8249 17.2771 35.3372 17.5474 34.7672 17.736C34.2098 17.912 33.6081 18 32.9621 18Z" fill="#101010"/>
<path d="M42.7916 5.49642V14.7374C42.7916 15.19 42.9056 15.5232 43.1336 15.7369C43.3743 15.9381 43.6973 16.0387 44.1027 16.0387C44.4193 16.0387 44.698 15.9947 44.9387 15.9067C45.1794 15.8061 45.3947 15.6741 45.5847 15.5106L46.0028 17.2268C45.6988 17.4657 45.3187 17.6543 44.8627 17.7926C44.4067 17.9309 43.9253 18 43.4186 18C42.7852 18 42.2215 17.9057 41.7275 17.7171C41.2462 17.5285 40.8661 17.2268 40.5874 16.8119C40.3214 16.397 40.1884 15.8438 40.1884 15.1523V6.21306L42.7916 5.49642ZM45.8318 8.38187V10.3055H38.4403V8.38187H45.8318Z" fill="#101010"/>
<path d="M51.6085 17.8114L46.7442 1.21539H50.4684L53.762 14.9197L57.1062 1.21539H60.4504L63.8452 14.9197L67.1134 1.21539H70.6856L65.8213 17.8114H61.8944L59.5636 8.75905L58.7783 4.83635H58.7276L57.9422 8.75905L55.6367 17.8114H51.6085Z" fill="#101010"/>
<path d="M73.9316 7.02401C73.3869 7.02401 72.9816 6.91085 72.7156 6.68454C72.4496 6.44566 72.3166 6.09991 72.3166 5.64729C72.3166 5.1821 72.4496 4.83635 72.7156 4.61004C72.9816 4.37115 73.3869 4.25171 73.9316 4.25171C74.4763 4.25171 74.8817 4.37115 75.1477 4.61004C75.4137 4.83635 75.5467 5.1821 75.5467 5.64729C75.5467 6.09991 75.4137 6.44566 75.1477 6.68454C74.8817 6.91085 74.4763 7.02401 73.9316 7.02401ZM75.2237 8.38187V17.8114H72.6206V8.38187H75.2237Z" fill="#101010"/>
<path d="M77.4702 17.8114V16.1518L81.6884 11.3239L82.7715 10.2489L81.1944 10.2866H77.5082V8.38187H85.6597V10.0415L81.4604 14.8505L80.3773 15.9444L82.1064 15.9067H85.8117V17.8114H77.4702Z" fill="#101010"/>
<path d="M93.4204 11.7954C93.4204 11.2547 93.2621 10.8336 92.9454 10.5318C92.6414 10.2301 92.236 10.0792 91.7293 10.0792C91.2606 10.0792 90.8489 10.1986 90.4943 10.4375C90.1396 10.6764 89.8799 11.0724 89.7152 11.6256L87.4921 10.9467C87.7074 10.1169 88.1761 9.45055 88.8982 8.94764C89.6329 8.44473 90.6146 8.19327 91.8433 8.19327C92.6794 8.19327 93.4078 8.32529 94.0285 8.58932C94.6492 8.84077 95.1305 9.22424 95.4725 9.73972C95.8272 10.2552 96.0046 10.9027 96.0046 11.6822V15.5106C96.0046 15.9884 96.2326 16.2273 96.6886 16.2273C96.904 16.2273 97.1067 16.1958 97.2967 16.133L97.1446 17.736C96.8153 17.8994 96.4036 17.9812 95.9096 17.9812C95.4662 17.9812 95.0672 17.9057 94.7125 17.7549C94.3578 17.604 94.0791 17.3777 93.8765 17.0759C93.6738 16.7616 93.5724 16.3719 93.5724 15.9067V15.8312L94.0285 15.7558C93.9525 16.2336 93.7434 16.6422 93.4014 16.9816C93.0594 17.3085 92.6414 17.56 92.1474 17.736C91.666 17.912 91.1656 18 90.6463 18C90.0002 18 89.4429 17.9057 88.9742 17.7171C88.5055 17.516 88.1444 17.2268 87.8911 16.8496C87.6378 16.4724 87.5111 16.0072 87.5111 15.454C87.5111 14.75 87.7391 14.1779 88.1951 13.7379C88.6511 13.2852 89.3035 12.9772 90.1522 12.8138L93.7244 12.0971L93.7054 13.7001L91.4253 14.1528C90.9946 14.2408 90.6653 14.3602 90.4373 14.5111C90.2219 14.6494 90.1142 14.882 90.1142 15.2089C90.1142 15.5232 90.2282 15.7621 90.4563 15.9255C90.6969 16.089 90.9819 16.1707 91.3113 16.1707C91.5773 16.1707 91.837 16.1393 92.0903 16.0764C92.3437 16.0135 92.5717 15.9129 92.7744 15.7746C92.9771 15.6363 93.1354 15.4478 93.2494 15.2089C93.3634 14.97 93.4204 14.6808 93.4204 14.3414V11.7954Z" fill="#101010"/>
<path d="M98.9539 17.8114V8.38187H101.215L101.386 10.2301C101.639 9.57628 102.007 9.07337 102.488 8.72133C102.982 8.36929 103.597 8.19327 104.331 8.19327C104.547 8.19327 104.743 8.21213 104.92 8.24985C105.098 8.28757 105.243 8.33786 105.357 8.40072L105.053 10.5695C104.927 10.5192 104.768 10.4815 104.578 10.4564C104.401 10.4312 104.167 10.4187 103.875 10.4187C103.495 10.4187 103.128 10.5129 102.773 10.7015C102.418 10.8776 102.127 11.1542 101.899 11.5313C101.671 11.896 101.557 12.3611 101.557 12.9269V17.8114H98.9539Z" fill="#101010"/>
<path d="M110.414 18C109.628 18 108.925 17.8051 108.305 17.4154C107.697 17.0256 107.215 16.4661 106.86 15.7369C106.518 15.0077 106.347 14.1339 106.347 13.1155C106.347 12.072 106.531 11.1856 106.898 10.4564C107.266 9.71458 107.76 9.15509 108.381 8.77791C109.014 8.38815 109.723 8.19327 110.509 8.19327C111.345 8.19327 112.035 8.43216 112.58 8.90992C113.125 9.38769 113.479 10.0038 113.644 10.7581L113.397 11.0599V4.25171H116V17.8114H113.663L113.492 14.9448L113.815 15.0957C113.726 15.6866 113.524 16.2021 113.207 16.6422C112.89 17.0696 112.491 17.4028 112.01 17.6417C111.528 17.8806 110.996 18 110.414 18ZM111.174 16.0198C111.63 16.0198 112.022 15.9067 112.352 15.6804C112.681 15.4415 112.934 15.0957 113.112 14.6431C113.302 14.1905 113.397 13.6499 113.397 13.0212C113.397 12.4177 113.308 11.9085 113.131 11.4936C112.953 11.0661 112.7 10.7393 112.371 10.5129C112.041 10.2866 111.655 10.1735 111.212 10.1735C110.502 10.1735 109.945 10.4249 109.54 10.9278C109.147 11.4182 108.951 12.1411 108.951 13.0966C108.951 14.0522 109.147 14.7814 109.54 15.2843C109.932 15.7746 110.477 16.0198 111.174 16.0198Z" fill="#101010"/>
</svg>
